<svg width="60" height="12" viewBox="0 0 60 12" fill="none" xmlns="http://www.w3.org/2000/svg">
<g clip-path="url(#clip0_3_230)">
<path d="M23.1265 0.981756C22.3815 0.479523 21.5291 0.158953 20.6378 0.0457785C19.7464 -0.0673961 18.8409 0.0299771 17.994 0.330082C17.1471 0.630187 16.3824 1.12466 15.7612 1.77382C15.14 2.42298 14.6796 3.20874 14.417 4.06802C14.1545 4.9273 14.097 5.83617 14.2493 6.72168C14.4015 7.60719 14.7593 8.44466 15.2938 9.16688C15.8283 9.8891 16.5247 10.476 17.3271 10.8803C18.1294 11.2847 19.0154 11.4953 19.9139 11.4953C21.145 11.4953 22.3435 11.1 23.333 10.3676C24.3225 9.63529 25.0508 8.60459 25.4105 7.42728C25.7703 6.24997 25.7425 4.98825 25.3314 3.8279C24.9202 2.66755 24.1473 1.66987 23.1265 0.981756ZM23.2879 7.17419C23.0101 7.82865 22.5492 8.38888 21.9604 8.7874C21.4341 9.14026 20.8253 9.35053 20.1934 9.39766C19.5616 9.44479 18.9283 9.32715 18.3555 9.05626C17.7827 8.78537 17.29 8.37049 16.9255 7.85217C16.561 7.33386 16.3373 6.72984 16.2762 6.09917C16.215 5.46851 16.3186 4.83276 16.5767 4.25409C16.8348 3.67542 17.2386 3.17362 17.7487 2.79774C18.2588 2.42187 18.8577 2.18478 19.4869 2.10965C20.116 2.03452 20.7539 2.12392 21.3382 2.36912C21.9929 2.64745 22.5532 3.10927 22.9514 3.69887C23.2914 4.20476 23.5002 4.7873 23.5589 5.394C23.6176 6.00069 23.5245 6.61247 23.2879 7.17419Z" fill="#009FE3"/>
<path d="M19.9139 3.9754C19.5633 3.97495 19.2205 4.0785 18.9287 4.27296C18.637 4.46742 18.4095 4.74404 18.275 5.06783C18.1405 5.39162 18.1051 5.74803 18.1732 6.09196C18.2413 6.43589 18.4099 6.75189 18.6577 6.99997C18.9054 7.24805 19.2212 7.41707 19.565 7.48564C19.9089 7.55421 20.2653 7.51925 20.5893 7.38518C20.9133 7.25111 21.1902 7.02396 21.385 6.73247C21.5799 6.44098 21.6839 6.09825 21.6839 5.74763C21.6839 5.27801 21.4975 4.82758 21.1656 4.49529C20.8337 4.163 20.3836 3.97602 19.9139 3.9754Z" fill="#E6007E"/>
<path d="M3.22643 11.3985L0 0.12674H2.10179L4.12061 8.01766L6.09564 0.12674H7.72729L9.70002 8.01766L11.7211 0.12674H13.8275L10.6011 11.3985H8.84962L6.91377 3.84174L4.98713 11.3985H3.22643Z" fill="#009FE3"/>
<path d="M26.8831 11.3985V0.12674H30.1464C31.5061 0.12674 32.5523 0.446309 33.2852 1.08545C34.0181 1.72152 34.3822 2.59496 34.3822 3.69885C34.3998 4.57384 34.0993 5.42548 33.5364 6.09563C33.267 6.42364 32.9334 6.6932 32.5562 6.88777C32.1789 7.08234 31.7659 7.19784 31.3424 7.22718L34.5136 11.3985H31.9808L29.0378 7.22718H28.971V11.3985H26.8831ZM28.9572 2.14095V5.49413H30.1948C30.7333 5.52236 31.267 5.38046 31.7204 5.08852C32.0953 4.82119 32.2835 4.39791 32.285 3.81869C32.2985 3.57738 32.2536 3.33637 32.1541 3.11612C32.0546 2.89586 31.9035 2.70285 31.7135 2.55347C31.2647 2.25639 30.7322 2.11174 30.1948 2.14095H28.9572Z" fill="#009FE3"/>
<path d="M35.9055 11.3985V0.12674H37.9796V5.01708L41.4941 0.12674H43.9485L39.7173 5.67158L43.9393 11.3985H41.4941L37.9912 6.46436V11.3985H35.9055Z" fill="#009FE3"/>
<path d="M45.329 11.3985V9.95123H46.7832V11.3985H45.329Z" fill="#009FE3"/>
<path d="M52.9664 5.38812V11.3985H51.6366V10.8454H51.6228C51.4353 11.079 51.1994 11.2693 50.9314 11.4031C50.66 11.5347 50.3619 11.6017 50.0603 11.599C49.2429 11.599 48.6322 11.347 48.2281 10.8431C47.8241 10.3391 47.6251 9.60629 47.6312 8.64451V5.38812H49.0785V8.45323C49.0785 9.07547 49.1684 9.52947 49.3712 9.81524C49.4763 9.95796 49.6162 10.0714 49.7776 10.1448C49.9389 10.2182 50.1164 10.2492 50.293 10.2347C50.4699 10.2508 50.6479 10.2205 50.8095 10.147C50.9711 10.0735 51.1108 9.95913 51.2149 9.81524C51.4177 9.52947 51.5191 9.07547 51.5191 8.45323V5.38812H52.9664Z" fill="#009FE3"/>
<path d="M60 5.38814V11.3985H58.6703V10.5873H58.6496C58.416 10.9114 58.1045 11.1714 57.7439 11.3432C57.3997 11.5054 57.025 11.5926 56.6446 11.599C56.2577 11.6042 55.874 11.5297 55.5172 11.3802C55.1604 11.2308 54.8381 11.0095 54.5704 10.7302C54.2779 10.4291 54.05 10.0714 53.9006 9.67906C53.7512 9.28674 53.6835 8.86805 53.7016 8.44864C53.6735 7.58921 53.9829 6.75292 54.5635 6.1187C54.83 5.82176 55.1573 5.58572 55.5231 5.42665C55.889 5.26757 56.2849 5.1892 56.6837 5.19686C57.0772 5.19146 57.4659 5.28329 57.8153 5.46419C58.1558 5.645 58.4421 5.91302 58.6449 6.24084H58.6657V5.38814H60ZM56.9234 6.55196C56.6853 6.54396 56.4482 6.58808 56.2289 6.68123C56.0096 6.77437 55.8132 6.9143 55.6536 7.09124C55.3196 7.46277 55.1428 7.94938 55.1604 8.44864C55.1462 8.68491 55.182 8.92153 55.2652 9.14309C55.3485 9.36466 55.4775 9.56622 55.6438 9.73468C55.81 9.90313 56.0099 10.0347 56.2304 10.1209C56.4508 10.207 56.687 10.2458 56.9234 10.2347C57.1551 10.2437 57.3859 10.2026 57.6003 10.1143C57.8147 10.0261 58.0075 9.8926 58.1656 9.72308C58.4936 9.35539 58.6648 8.87402 58.6426 8.3818C58.6582 7.901 58.4872 7.43282 58.1656 7.0751C58.0091 6.90276 57.8169 6.76665 57.6023 6.67629C57.3878 6.58593 57.1561 6.5435 56.9234 6.55196Z" fill="#009FE3"/>
</g>
<defs>
<clipPath id="clip0_3_230">
<rect width="60" height="11.599" fill="white"/>
</clipPath>
</defs>
</svg>
