<svg width="193" height="193" viewBox="0 0 193 193" fill="none" xmlns="http://www.w3.org/2000/svg">
<path d="M27.2114 193H165.789C180.79 193 193 180.79 193 165.789V27.2114C193 12.2098 180.79 0 165.789 0H27.2114C12.2098 0 0 12.2098 0 27.2114V165.789C0 180.79 12.2098 193 27.2114 193ZM133.135 137.511L59.0639 121.944L61.5497 110.141L135.621 125.708L133.135 137.511ZM130.903 52.1817C140.179 52.1817 147.699 59.7012 147.699 68.977C147.699 78.2532 140.179 85.7727 130.903 85.7727C121.627 85.7727 114.108 78.2532 114.108 68.977C114.108 59.7016 121.627 52.1817 130.903 52.1817ZM62.0936 52.1817C71.3694 52.1817 78.8893 59.7012 78.8893 68.977C78.8893 78.2532 71.3694 85.7727 62.0936 85.7727C52.8174 85.7727 45.2979 78.2532 45.2979 68.977C45.2979 59.7016 52.8174 52.1817 62.0936 52.1817Z" fill="white"/>
</svg>
