<svg width="64" height="63" viewBox="0 0 64 63" fill="none" xmlns="http://www.w3.org/2000/svg">
<path d="M32 0.00199997C14.322 0.00199997 0 14.336 0 32.002C0 46.148 9.168 58.138 21.874 62.368C23.48 62.67 24.06 61.68 24.06 60.824C24.06 60.064 24.042 58.054 24.03 55.386C15.124 57.314 13.248 51.084 13.248 51.084C11.79 47.396 9.686 46.406 9.686 46.406C6.79 44.428 9.916 44.47 9.916 44.47C13.124 44.688 14.812 47.76 14.812 47.76C17.666 52.656 22.3 51.24 24.134 50.416C24.414 48.354 25.248 46.936 26.156 46.146C19.052 45.344 11.582 42.594 11.582 30.332C11.582 26.83 12.822 23.978 14.872 21.738C14.518 20.936 13.434 17.676 15.154 13.268C15.154 13.268 17.832 12.414 23.954 16.55C26.516 15.84 29.236 15.486 31.954 15.468C34.674 15.486 37.392 15.842 39.954 16.55C46.04 12.414 48.716 13.268 48.716 13.268C50.434 17.676 49.35 20.934 49.038 21.738C51.068 23.978 52.308 26.832 52.308 30.332C52.308 42.622 44.828 45.332 37.716 46.114C38.828 47.072 39.87 49.042 39.87 52.032C39.87 56.312 39.83 59.76 39.83 60.802C39.83 61.634 40.39 62.634 42.038 62.312C54.838 58.126 63.996 46.126 63.996 32C63.996 14.334 49.674 0 31.996 0L32 0.00199997Z" fill="white"/>
</svg>
