<svg width="106" height="24" viewBox="0 0 106 24" fill="none" xmlns="http://www.w3.org/2000/svg">
<path d="M36.6595 10.6598H4.5874L12.9679 2.28867C13.4941 1.76299 13.4941 0.91993 12.9679 0.394256C12.4416 -0.131419 11.5976 -0.131419 11.0713 0.394256L0.397178 11.0565C0.148942 11.3045 0 11.6516 0 11.9988C0 12.3459 0.139012 12.693 0.397178 12.941L11.0713 23.6033C11.3295 23.8611 11.677 24 12.0146 24C12.3522 24 12.6998 23.8711 12.9579 23.6033C13.4842 23.0776 13.4842 22.2345 12.9579 21.7089L4.5874 13.3377H36.6595C37.4042 13.3377 38 12.7426 38 11.9988C38 11.2549 37.4042 10.6598 36.6595 10.6598Z" fill="white"/>
<path d="M49.517 20V2.54546H56.5057C57.7898 2.54546 58.8608 2.7358 59.7188 3.11648C60.5767 3.49716 61.2216 4.02557 61.6534 4.70171C62.0852 5.37216 62.3011 6.14489 62.3011 7.01989C62.3011 7.70171 62.1648 8.30114 61.892 8.81819C61.6193 9.32955 61.2443 9.75001 60.767 10.0796C60.2955 10.4034 59.7557 10.6335 59.1477 10.7699V10.9403C59.8125 10.9688 60.4347 11.1563 61.0142 11.5028C61.5994 11.8494 62.0739 12.3352 62.4375 12.9602C62.8011 13.5796 62.983 14.3182 62.983 15.1761C62.983 16.1023 62.7528 16.929 62.2926 17.6563C61.8381 18.3778 61.1648 18.9489 60.2727 19.3693C59.3807 19.7898 58.2812 20 56.9744 20H49.517ZM53.2074 16.983H56.2159C57.2443 16.983 57.9943 16.7869 58.4659 16.3949C58.9375 15.9972 59.1733 15.4688 59.1733 14.8097C59.1733 14.3267 59.0568 13.9006 58.8239 13.5313C58.5909 13.1619 58.2585 12.8722 57.8267 12.6619C57.4006 12.4517 56.892 12.3466 56.3011 12.3466H53.2074V16.983ZM53.2074 9.84944H55.9432C56.4489 9.84944 56.8977 9.76137 57.2898 9.58523C57.6875 9.40341 58 9.14773 58.2273 8.81819C58.4602 8.48864 58.5767 8.09376 58.5767 7.63353C58.5767 7.00285 58.3523 6.49432 57.9034 6.10796C57.4602 5.7216 56.8295 5.52841 56.0114 5.52841H53.2074V9.84944Z" fill="white"/>
<path d="M69.049 20.2472C68.2138 20.2472 67.4695 20.1023 66.816 19.8125C66.1626 19.5171 65.6456 19.0824 65.2649 18.5085C64.8899 17.929 64.7024 17.2074 64.7024 16.3438C64.7024 15.6165 64.8359 15.0057 65.103 14.5114C65.37 14.0171 65.7337 13.6193 66.1939 13.3182C66.6541 13.0171 67.1769 12.7898 67.7621 12.6364C68.353 12.483 68.9723 12.375 69.62 12.3125C70.3814 12.233 70.995 12.1591 71.4609 12.0909C71.9268 12.0171 72.2649 11.9091 72.4751 11.7671C72.6854 11.625 72.7905 11.4148 72.7905 11.1364V11.0852C72.7905 10.5455 72.62 10.1278 72.2791 9.83239C71.9439 9.53694 71.4666 9.38921 70.8473 9.38921C70.1939 9.38921 69.674 9.5341 69.2876 9.82387C68.9013 10.108 68.6456 10.4659 68.5206 10.8977L65.1626 10.625C65.3331 9.82955 65.6683 9.14205 66.1683 8.56251C66.6683 7.97728 67.3132 7.52841 68.103 7.21591C68.8984 6.89773 69.8189 6.73864 70.8643 6.73864C71.5916 6.73864 72.2876 6.82387 72.9524 6.99432C73.6229 7.16478 74.2166 7.42898 74.7337 7.78694C75.2564 8.14489 75.6683 8.60512 75.9695 9.16762C76.2706 9.72444 76.4212 10.3921 76.4212 11.1705V20H72.978V18.1847H72.8757C72.6655 18.5938 72.3842 18.9546 72.032 19.2671C71.6797 19.5739 71.2564 19.8153 70.7621 19.9915C70.2678 20.1619 69.6967 20.2472 69.049 20.2472ZM70.0888 17.7415C70.6229 17.7415 71.0945 17.6364 71.5035 17.4261C71.9126 17.2102 72.2337 16.9205 72.4666 16.5568C72.6996 16.1932 72.8161 15.7813 72.8161 15.321V13.9318C72.7024 14.0057 72.5462 14.0739 72.3473 14.1364C72.1541 14.1932 71.9354 14.2472 71.6911 14.2983C71.4467 14.3438 71.2024 14.3864 70.9581 14.4261C70.7138 14.4602 70.4922 14.4915 70.2933 14.5199C69.8672 14.5824 69.495 14.6818 69.1768 14.8182C68.8587 14.9546 68.6115 15.1392 68.4354 15.3722C68.2592 15.5994 68.1712 15.8835 68.1712 16.2244C68.1712 16.7188 68.3501 17.0966 68.7081 17.358C69.0717 17.6136 69.532 17.7415 70.0888 17.7415Z" fill="white"/>
<path d="M85.1527 20.2557C83.8118 20.2557 82.6584 19.9716 81.6925 19.4034C80.7322 18.8296 79.9936 18.0341 79.4766 17.0171C78.9652 16 78.7095 14.8296 78.7095 13.5057C78.7095 12.1648 78.968 10.9886 79.4851 9.97728C80.0078 8.96023 80.7493 8.16762 81.7095 7.59944C82.6697 7.02557 83.8118 6.73864 85.1357 6.73864C86.2777 6.73864 87.2777 6.94603 88.1357 7.3608C88.9936 7.77557 89.6726 8.35796 90.1726 9.10796C90.6726 9.85796 90.9482 10.7386 90.9993 11.75H87.5732C87.4766 11.0966 87.2209 10.571 86.8061 10.1733C86.397 9.76989 85.8601 9.56819 85.1953 9.56819C84.6328 9.56819 84.1413 9.7216 83.7209 10.0284C83.3061 10.3296 82.9822 10.7699 82.7493 11.3494C82.5163 11.929 82.3999 12.6307 82.3999 13.4546C82.3999 14.2898 82.5135 15 82.7408 15.5852C82.9737 16.1705 83.3004 16.6165 83.7209 16.9233C84.1413 17.2301 84.6328 17.3835 85.1953 17.3835C85.6101 17.3835 85.9822 17.2983 86.3118 17.1278C86.647 16.9574 86.9226 16.7102 87.1385 16.3864C87.3601 16.0568 87.505 15.6619 87.5732 15.2017H90.9993C90.9425 16.2017 90.6697 17.0824 90.1811 17.8438C89.6982 18.5994 89.0305 19.1903 88.1783 19.6165C87.326 20.0426 86.3175 20.2557 85.1527 20.2557Z" fill="white"/>
<path d="M96.6136 16.233L96.6222 11.8778H97.1506L101.344 6.9091H105.511L99.8778 13.4886H99.017L96.6136 16.233ZM93.3239 20V2.54546H96.9545V20H93.3239ZM101.506 20L97.6534 14.2983L100.074 11.733L105.759 20H101.506Z" fill="white"/>
</svg>
