<svg width="43" height="16" viewBox="0 0 43 16" fill="none" xmlns="http://www.w3.org/2000/svg">
<path d="M5.42045 15H0.264205V0.454545H5.46307C6.92614 0.454545 8.18561 0.745738 9.24148 1.32812C10.2973 1.90578 11.1094 2.73674 11.6776 3.82102C12.2505 4.9053 12.5369 6.20265 12.5369 7.71307C12.5369 9.22822 12.2505 10.5303 11.6776 11.6193C11.1094 12.7083 10.2926 13.544 9.22727 14.1264C8.16667 14.7088 6.89773 15 5.42045 15ZM3.33949 12.3651H5.29261C6.2017 12.3651 6.96638 12.2041 7.58665 11.8821C8.21165 11.5554 8.6804 11.0511 8.9929 10.3693C9.31013 9.68277 9.46875 8.79735 9.46875 7.71307C9.46875 6.63826 9.31013 5.75994 8.9929 5.07812C8.6804 4.39631 8.21402 3.89441 7.59375 3.57244C6.97348 3.25047 6.20881 3.08949 5.29972 3.08949H3.33949V12.3651ZM28.1815 7.72727C28.1815 9.31345 27.8808 10.6629 27.2795 11.7756C26.6829 12.8883 25.8685 13.7382 24.8363 14.3253C23.8088 14.9077 22.6535 15.1989 21.3704 15.1989C20.0778 15.1989 18.9177 14.9053 17.8903 14.3182C16.8628 13.7311 16.0508 12.8812 15.4542 11.7685C14.8576 10.6558 14.5593 9.30871 14.5593 7.72727C14.5593 6.1411 14.8576 4.79167 15.4542 3.67898C16.0508 2.56629 16.8628 1.71875 17.8903 1.13636C18.9177 0.549242 20.0778 0.255681 21.3704 0.255681C22.6535 0.255681 23.8088 0.549242 24.8363 1.13636C25.8685 1.71875 26.6829 2.56629 27.2795 3.67898C27.8808 4.79167 28.1815 6.1411 28.1815 7.72727ZM25.0636 7.72727C25.0636 6.69981 24.9097 5.83333 24.6019 5.12784C24.2989 4.42235 23.8704 3.88731 23.3164 3.52273C22.7624 3.15814 22.1138 2.97585 21.3704 2.97585C20.627 2.97585 19.9783 3.15814 19.4244 3.52273C18.8704 3.88731 18.4395 4.42235 18.1317 5.12784C17.8287 5.83333 17.6772 6.69981 17.6772 7.72727C17.6772 8.75473 17.8287 9.62121 18.1317 10.3267C18.4395 11.0322 18.8704 11.5672 19.4244 11.9318C19.9783 12.2964 20.627 12.4787 21.3704 12.4787C22.1138 12.4787 22.7624 12.2964 23.3164 11.9318C23.8704 11.5672 24.2989 11.0322 24.6019 10.3267C24.9097 9.62121 25.0636 8.75473 25.0636 7.72727ZM39.4439 0.454545H42.5192V9.90057C42.5192 10.9612 42.2659 11.8892 41.7592 12.6847C41.2573 13.4801 40.5542 14.1004 39.6499 14.5455C38.7455 14.9858 37.692 15.206 36.4893 15.206C35.282 15.206 34.2261 14.9858 33.3217 14.5455C32.4174 14.1004 31.7143 13.4801 31.2124 12.6847C30.7105 11.8892 30.4595 10.9612 30.4595 9.90057V0.454545H33.5348V9.63778C33.5348 10.1918 33.6555 10.6842 33.897 11.1151C34.1432 11.5459 34.4889 11.8845 34.9339 12.1307C35.379 12.3769 35.8975 12.5 36.4893 12.5C37.0859 12.5 37.6044 12.3769 38.0447 12.1307C38.4898 11.8845 38.8331 11.5459 39.0746 11.1151C39.3208 10.6842 39.4439 10.1918 39.4439 9.63778V0.454545Z" fill="black"/>
</svg>
