<svg width="69" height="24" viewBox="0 0 69 24" fill="none" xmlns="http://www.w3.org/2000/svg">
<path d="M8.48681 23.6694H0.188965V0.31924H8.55538C10.9099 0.31924 12.9367 0.786699 14.6359 1.72162C16.3351 2.64893 17.6419 3.9829 18.5562 5.72352C19.4782 7.46413 19.9392 9.54679 19.9392 11.9715C19.9392 14.4038 19.4782 16.4941 18.5562 18.2423C17.6419 19.9905 16.3275 21.3321 14.613 22.267C12.9062 23.2019 10.8641 23.6694 8.48681 23.6694ZM5.13795 19.4394H8.28107C9.74405 19.4394 10.9746 19.181 11.9728 18.6641C12.9786 18.1397 13.733 17.3302 14.2359 16.2356C14.7464 15.1335 15.0016 13.7121 15.0016 11.9715C15.0016 10.2461 14.7464 8.8361 14.2359 7.74157C13.733 6.64703 12.9824 5.84133 11.9842 5.32447C10.9861 4.8076 9.75548 4.54917 8.2925 4.54917H5.13795V19.4394Z" fill="black"/>
<path d="M45.1156 11.9943C45.1156 14.5406 44.6317 16.7069 43.664 18.4931C42.704 20.2793 41.3934 21.6437 39.7323 22.5862C38.0788 23.5211 36.2196 23.9886 34.1547 23.9886C32.0745 23.9886 30.2077 23.5173 28.5542 22.5748C26.9007 21.6323 25.594 20.2679 24.6339 18.4817C23.6738 16.6955 23.1938 14.533 23.1938 11.9943C23.1938 9.44798 23.6738 7.28171 24.6339 5.49549C25.594 3.70926 26.9007 2.34869 28.5542 1.41378C30.2077 0.471259 32.0745 0 34.1547 0C36.2196 0 38.0788 0.471259 39.7323 1.41378C41.3934 2.34869 42.704 3.70926 43.664 5.49549C44.6317 7.28171 45.1156 9.44798 45.1156 11.9943ZM40.098 11.9943C40.098 10.3449 39.8504 8.95392 39.3551 7.82138C38.8675 6.68884 38.1779 5.82993 37.2864 5.24466C36.3949 4.65938 35.351 4.36675 34.1547 4.36675C32.9584 4.36675 31.9145 4.65938 31.023 5.24466C30.1315 5.82993 29.4381 6.68884 28.9428 7.82138C28.4551 8.95392 28.2113 10.3449 28.2113 11.9943C28.2113 13.6437 28.4551 15.0347 28.9428 16.1672C29.4381 17.2998 30.1315 18.1587 31.023 18.7439C31.9145 19.3292 32.9584 19.6219 34.1547 19.6219C35.351 19.6219 36.3949 19.3292 37.2864 18.7439C38.1779 18.1587 38.8675 17.2998 39.3551 16.1672C39.8504 15.0347 40.098 13.6437 40.098 11.9943Z" fill="black"/>
<path d="M63.24 0.31924H68.189V15.4831C68.189 17.1857 67.7813 18.6755 66.966 19.9525C66.1583 21.2295 65.0268 22.2252 63.5714 22.9397C62.1161 23.6466 60.4207 24 58.4853 24C56.5423 24 54.8431 23.6466 53.3877 22.9397C51.9324 22.2252 50.8008 21.2295 49.9931 19.9525C49.1855 18.6755 48.7816 17.1857 48.7816 15.4831V0.31924H53.7306V15.0613C53.7306 15.9506 53.9249 16.7411 54.3135 17.4328C54.7097 18.1245 55.266 18.6679 55.9822 19.0632C56.6985 19.4584 57.5328 19.6561 58.4853 19.6561C59.4454 19.6561 60.2797 19.4584 60.9884 19.0632C61.7046 18.6679 62.257 18.1245 62.6456 17.4328C63.0419 16.7411 63.24 15.9506 63.24 15.0613V0.31924Z" fill="black"/>
</svg>
