<svg width="62" height="40" viewBox="0 0 62 40" fill="none" xmlns="http://www.w3.org/2000/svg">
<path d="M32 0.296999C25.3707 0.296999 20 5.67225 20 12.297C20 17.6018 23.438 22.098 28.2027 23.6843C28.805 23.7975 29.0225 23.4262 29.0225 23.1052C29.0225 22.8202 29.0157 22.0665 29.0112 21.066C25.6715 21.789 24.968 19.4528 24.968 19.4528C24.4212 18.0698 23.6322 17.6985 23.6322 17.6985C22.5462 16.9567 23.7185 16.9725 23.7185 16.9725C24.9215 17.0542 25.5545 18.2062 25.5545 18.2062C26.6247 20.0422 28.3625 19.5113 29.0502 19.2023C29.1552 18.429 29.468 17.8972 29.8085 17.601C27.1445 17.3002 24.3432 16.269 24.3432 11.6707C24.3432 10.3575 24.8082 9.288 25.577 8.448C25.4442 8.14725 25.0377 6.92475 25.6827 5.27175C25.6827 5.27175 26.687 4.9515 28.9827 6.5025C29.9435 6.23625 30.9635 6.1035 31.9827 6.09675C33.0027 6.1035 34.022 6.237 34.9827 6.5025C37.265 4.9515 38.2685 5.27175 38.2685 5.27175C38.9127 6.92475 38.5062 8.1465 38.3892 8.448C39.1505 9.288 39.6155 10.3582 39.6155 11.6707C39.6155 16.2795 36.8105 17.2958 34.1435 17.589C34.5605 17.9483 34.9512 18.687 34.9512 19.8083C34.9512 21.4133 34.9362 22.7063 34.9362 23.097C34.9362 23.409 35.1462 23.784 35.7642 23.6633C40.5642 22.0935 43.9985 17.5935 43.9985 12.2963C43.9985 5.6715 38.6277 0.296249 31.9985 0.296249L32 0.296999Z" fill="white"/>
<path d="M1.94601 29.7273L3.70382 35.2528H3.7713L5.53266 29.7273H7.23721L4.7301 37H2.74857L0.237915 29.7273H1.94601Z" fill="white"/>
<path d="M8.08415 37V31.5455H9.59694V37H8.08415ZM8.84409 30.8423C8.61919 30.8423 8.42624 30.7678 8.26526 30.6186C8.10664 30.4671 8.02733 30.286 8.02733 30.0753C8.02733 29.8669 8.10664 29.6882 8.26526 29.5391C8.42624 29.3875 8.61919 29.3118 8.84409 29.3118C9.069 29.3118 9.26076 29.3875 9.41938 29.5391C9.58036 29.6882 9.66086 29.8669 9.66086 30.0753C9.66086 30.286 9.58036 30.4671 9.41938 30.6186C9.26076 30.7678 9.069 30.8423 8.84409 30.8423Z" fill="white"/>
<path d="M13.2946 37.1065C12.7335 37.1065 12.2505 36.9929 11.8457 36.7656C11.4432 36.536 11.1331 36.2116 10.9153 35.7926C10.6975 35.3712 10.5886 34.8729 10.5886 34.2976C10.5886 33.7365 10.6975 33.2441 10.9153 32.8203C11.1331 32.3965 11.4397 32.0663 11.835 31.8295C12.2328 31.5928 12.6991 31.4744 13.2342 31.4744C13.594 31.4744 13.929 31.5324 14.2392 31.6484C14.5517 31.7621 14.8239 31.9337 15.0559 32.1634C15.2903 32.393 15.4726 32.6818 15.6028 33.0298C15.733 33.3755 15.7981 33.7803 15.7981 34.2443V34.6598H11.1923V33.7223H14.3741C14.3741 33.5045 14.3268 33.3116 14.2321 33.1435C14.1374 32.9754 14.006 32.844 13.8379 32.7493C13.6722 32.6522 13.4792 32.6037 13.259 32.6037C13.0294 32.6037 12.8258 32.657 12.6482 32.7635C12.4731 32.8677 12.3357 33.0085 12.2363 33.1861C12.1369 33.3613 12.086 33.5566 12.0836 33.772V34.6634C12.0836 34.9332 12.1333 35.1664 12.2328 35.3629C12.3346 35.5594 12.4778 35.7109 12.6625 35.8175C12.8471 35.924 13.0661 35.9773 13.3194 35.9773C13.4875 35.9773 13.6414 35.9536 13.7811 35.9062C13.9207 35.8589 14.0403 35.7879 14.1397 35.6932C14.2392 35.5985 14.3149 35.4825 14.367 35.3452L15.7661 35.4375C15.6951 35.7737 15.5495 36.0672 15.3294 36.3182C15.1116 36.5668 14.8298 36.7609 14.4842 36.9006C14.1409 37.0379 13.7444 37.1065 13.2946 37.1065Z" fill="white"/>
<path d="M17.8223 37L16.3379 31.5455H17.8684L18.7136 35.2102H18.7633L19.644 31.5455H21.1461L22.041 35.1889H22.0872L22.9181 31.5455H24.4451L22.9643 37H21.3627L20.4252 33.5696H20.3578L19.4203 37H17.8223Z" fill="white"/>
<path d="M27.5666 39.0455V31.5455H29.0581V32.4616H29.1255C29.1918 32.3149 29.2877 32.1657 29.4132 32.0142C29.541 31.8603 29.7067 31.7325 29.9103 31.6307C30.1163 31.5265 30.372 31.4744 30.6774 31.4744C31.0751 31.4744 31.442 31.5786 31.7782 31.7869C32.1144 31.9929 32.3831 32.3042 32.5843 32.7209C32.7856 33.1352 32.8862 33.6548 32.8862 34.2798C32.8862 34.8883 32.7879 35.402 32.5914 35.821C32.3973 36.2377 32.1322 36.5537 31.796 36.7692C31.4622 36.9822 31.0881 37.0888 30.6738 37.0888C30.3803 37.0888 30.1305 37.0402 29.9245 36.9432C29.7209 36.8461 29.554 36.7242 29.4238 36.5774C29.2936 36.4283 29.1942 36.2779 29.1255 36.1264H29.0794V39.0455H27.5666ZM29.0474 34.2727C29.0474 34.5971 29.0924 34.88 29.1823 35.1214C29.2723 35.3629 29.4025 35.5511 29.573 35.6861C29.7434 35.8187 29.9506 35.8849 30.1944 35.8849C30.4406 35.8849 30.649 35.8175 30.8194 35.6825C30.9899 35.5452 31.1189 35.3558 31.2065 35.1143C31.2964 34.8705 31.3414 34.59 31.3414 34.2727C31.3414 33.9579 31.2976 33.6809 31.21 33.4418C31.1224 33.2027 30.9934 33.0156 30.823 32.8807C30.6525 32.7457 30.443 32.6783 30.1944 32.6783C29.9482 32.6783 29.7399 32.7434 29.5694 32.8736C29.4013 33.0038 29.2723 33.1884 29.1823 33.4276C29.0924 33.6667 29.0474 33.9484 29.0474 34.2727Z" fill="white"/>
<path d="M33.8947 37V31.5455H35.3613V32.4972H35.4181C35.5176 32.1586 35.6845 31.9029 35.9188 31.7301C36.1532 31.5549 36.4231 31.4673 36.7285 31.4673C36.8043 31.4673 36.8859 31.4721 36.9735 31.4815C37.0611 31.491 37.1381 31.504 37.2044 31.5206V32.8629C37.1333 32.8416 37.0351 32.8227 36.9096 32.8061C36.7841 32.7895 36.6693 32.7812 36.5652 32.7812C36.3426 32.7812 36.1438 32.8298 35.9686 32.9268C35.7957 33.0215 35.6584 33.1541 35.5566 33.3246C35.4572 33.495 35.4075 33.6915 35.4075 33.9141V37H33.8947Z" fill="white"/>
<path d="M40.1971 37.1065C39.6455 37.1065 39.1684 36.9893 38.766 36.755C38.3659 36.5182 38.0569 36.1892 37.8391 35.7678C37.6213 35.344 37.5124 34.8527 37.5124 34.294C37.5124 33.7306 37.6213 33.2382 37.8391 32.8168C38.0569 32.393 38.3659 32.0639 38.766 31.8295C39.1684 31.5928 39.6455 31.4744 40.1971 31.4744C40.7487 31.4744 41.2245 31.5928 41.6246 31.8295C42.0271 32.0639 42.3372 32.393 42.555 32.8168C42.7728 33.2382 42.8817 33.7306 42.8817 34.294C42.8817 34.8527 42.7728 35.344 42.555 35.7678C42.3372 36.1892 42.0271 36.5182 41.6246 36.755C41.2245 36.9893 40.7487 37.1065 40.1971 37.1065ZM40.2042 35.9347C40.4551 35.9347 40.6646 35.8636 40.8327 35.7216C41.0008 35.5772 41.1275 35.3807 41.2127 35.1321C41.3003 34.8835 41.3441 34.6006 41.3441 34.2834C41.3441 33.9661 41.3003 33.6832 41.2127 33.4347C41.1275 33.1861 41.0008 32.9896 40.8327 32.8452C40.6646 32.7008 40.4551 32.6286 40.2042 32.6286C39.9509 32.6286 39.7378 32.7008 39.565 32.8452C39.3945 32.9896 39.2655 33.1861 39.1779 33.4347C39.0927 33.6832 39.0501 33.9661 39.0501 34.2834C39.0501 34.6006 39.0927 34.8835 39.1779 35.1321C39.2655 35.3807 39.3945 35.5772 39.565 35.7216C39.7378 35.8636 39.9509 35.9347 40.2042 35.9347Z" fill="white"/>
<path d="M43.8654 31.5455H45.3782V37.2699C45.3782 37.6913 45.2953 38.0322 45.1296 38.2926C44.9639 38.553 44.726 38.7436 44.4158 38.8643C44.1081 38.9851 43.7399 39.0455 43.3114 39.0455C43.2593 39.0455 43.2096 39.0443 43.1623 39.0419C43.1126 39.0419 43.0605 39.0407 43.006 39.0384V37.8558C43.0463 37.8582 43.0818 37.8594 43.1126 37.8594C43.141 37.8617 43.1717 37.8629 43.2049 37.8629C43.4487 37.8629 43.6192 37.8108 43.7163 37.7067C43.8157 37.6049 43.8654 37.451 43.8654 37.245V31.5455ZM44.6182 30.8423C44.3957 30.8423 44.2039 30.7678 44.043 30.6186C43.882 30.4671 43.8015 30.286 43.8015 30.0753C43.8015 29.8669 43.882 29.6882 44.043 29.5391C44.2039 29.3875 44.3957 29.3118 44.6182 29.3118C44.8455 29.3118 45.0385 29.3875 45.1971 29.5391C45.3581 29.6882 45.4386 29.8669 45.4386 30.0753C45.4386 30.286 45.3581 30.4671 45.1971 30.6186C45.0385 30.7678 44.8455 30.8423 44.6182 30.8423Z" fill="white"/>
<path d="M49.0758 37.1065C48.5147 37.1065 48.0318 36.9929 47.6269 36.7656C47.2245 36.536 46.9143 36.2116 46.6965 35.7926C46.4787 35.3712 46.3698 34.8729 46.3698 34.2976C46.3698 33.7365 46.4787 33.2441 46.6965 32.8203C46.9143 32.3965 47.2209 32.0663 47.6163 31.8295C48.014 31.5928 48.4804 31.4744 49.0154 31.4744C49.3753 31.4744 49.7103 31.5324 50.0204 31.6484C50.3329 31.7621 50.6052 31.9337 50.8372 32.1634C51.0715 32.393 51.2538 32.6818 51.384 33.0298C51.5143 33.3755 51.5794 33.7803 51.5794 34.2443V34.6598H46.9735V33.7223H50.1553C50.1553 33.5045 50.108 33.3116 50.0133 33.1435C49.9186 32.9754 49.7872 32.844 49.6191 32.7493C49.4534 32.6522 49.2605 32.6037 49.0403 32.6037C48.8107 32.6037 48.6071 32.657 48.4295 32.7635C48.2543 32.8677 48.117 33.0085 48.0176 33.1861C47.9181 33.3613 47.8672 33.5566 47.8649 33.772V34.6634C47.8649 34.9332 47.9146 35.1664 48.014 35.3629C48.1158 35.5594 48.259 35.7109 48.4437 35.8175C48.6284 35.924 48.8473 35.9773 49.1007 35.9773C49.2687 35.9773 49.4226 35.9536 49.5623 35.9062C49.702 35.8589 49.8215 35.7879 49.921 35.6932C50.0204 35.5985 50.0962 35.4825 50.1483 35.3452L51.5474 35.4375C51.4764 35.7737 51.3308 36.0672 51.1106 36.3182C50.8928 36.5668 50.6111 36.7609 50.2654 36.9006C49.9222 37.0379 49.5256 37.1065 49.0758 37.1065Z" fill="white"/>
<path d="M55.0311 37.1065C54.4724 37.1065 53.9918 36.9882 53.5893 36.7514C53.1892 36.5123 52.8814 36.1809 52.666 35.7571C52.4529 35.3333 52.3464 34.8456 52.3464 34.294C52.3464 33.7353 52.4541 33.2453 52.6696 32.8239C52.8874 32.4001 53.1963 32.0698 53.5964 31.8331C53.9965 31.594 54.4724 31.4744 55.024 31.4744C55.4998 31.4744 55.9165 31.5608 56.274 31.7337C56.6314 31.9065 56.9143 32.1491 57.1227 32.4616C57.331 32.7741 57.4458 33.1411 57.4671 33.5625H56.0396C55.9993 33.2902 55.8928 33.0713 55.72 32.9055C55.5495 32.7375 55.3258 32.6534 55.0488 32.6534C54.8144 32.6534 54.6097 32.7173 54.4345 32.8452C54.2616 32.9706 54.1267 33.1541 54.0296 33.3956C53.9326 33.6371 53.884 33.9295 53.884 34.2727C53.884 34.6207 53.9314 34.9167 54.0261 35.1605C54.1232 35.4044 54.2593 35.5902 54.4345 35.718C54.6097 35.8459 54.8144 35.9098 55.0488 35.9098C55.2216 35.9098 55.3767 35.8743 55.514 35.8033C55.6537 35.7322 55.7685 35.6293 55.8585 35.4943C55.9508 35.357 56.0112 35.1925 56.0396 35.0007H57.4671C57.4435 35.4174 57.3298 35.7843 57.1262 36.1016C56.925 36.4164 56.6468 36.6626 56.2917 36.8402C55.9366 37.0178 55.5164 37.1065 55.0311 37.1065Z" fill="white"/>
<path d="M61.337 31.5455V32.6818H58.0522V31.5455H61.337ZM58.7979 30.2386H60.3107V35.3239C60.3107 35.4635 60.332 35.5724 60.3746 35.6506C60.4172 35.7263 60.4764 35.7796 60.5522 35.8104C60.6303 35.8411 60.7203 35.8565 60.8221 35.8565C60.8931 35.8565 60.9641 35.8506 61.0351 35.8388C61.1062 35.8246 61.1606 35.8139 61.1985 35.8068L61.4364 36.9325C61.3607 36.9562 61.2541 36.9834 61.1168 37.0142C60.9795 37.0473 60.8126 37.0675 60.6161 37.0746C60.2515 37.0888 59.9319 37.0402 59.6573 36.929C59.385 36.8177 59.1732 36.6449 59.0217 36.4105C58.8701 36.1761 58.7956 35.8802 58.7979 35.5227V30.2386Z" fill="white"/>
</svg>
