<svg width="486" height="64" viewBox="0 0 486 64" fill="none" xmlns="http://www.w3.org/2000/svg">
<path d="M1.27841 23.3821V18.8182H22.7812V23.3821H14.7656V45H9.29403V23.3821H1.27841ZM31.858 18.8182V45H26.3224V18.8182H31.858ZM36.4123 45V18.8182H46.7418C48.7191 18.8182 50.4066 19.1719 51.8043 19.8793C53.2106 20.5781 54.2802 21.571 55.0131 22.858C55.7546 24.1364 56.1254 25.6406 56.1254 27.3707C56.1254 29.1094 55.7504 30.6051 55.0004 31.858C54.2504 33.1023 53.1637 34.0568 51.7404 34.7216C50.3256 35.3864 48.6126 35.7188 46.6012 35.7188H39.685V31.2699H45.7063C46.7631 31.2699 47.641 31.125 48.3398 30.8352C49.0387 30.5455 49.5586 30.1108 49.8995 29.5312C50.2489 28.9517 50.4237 28.2315 50.4237 27.3707C50.4237 26.5014 50.2489 25.7685 49.8995 25.1719C49.5586 24.5753 49.0344 24.1236 48.3271 23.8168C47.6282 23.5014 46.7461 23.3438 45.6808 23.3438H41.9478V45H36.4123ZM50.5515 33.0852L57.0586 45H50.9478L44.5813 33.0852H50.5515ZM60.0373 45V18.8182H77.6793V23.3821H65.5728V29.6207H76.7717V34.1847H65.5728V40.4361H77.7305V45H60.0373ZM91.3615 45H82.0803V18.8182H91.4382C94.0717 18.8182 96.3388 19.3423 98.2393 20.3906C100.14 21.4304 101.602 22.9261 102.624 24.8778C103.656 26.8295 104.171 29.1648 104.171 31.8835C104.171 34.6108 103.656 36.9545 102.624 38.9148C101.602 40.875 100.131 42.3793 98.2138 43.4276C96.3047 44.4759 94.0206 45 91.3615 45ZM87.6158 40.2571H91.1314C92.7678 40.2571 94.1442 39.9673 95.2607 39.3878C96.3857 38.7997 97.2294 37.892 97.7919 36.6648C98.3629 35.429 98.6484 33.8352 98.6484 31.8835C98.6484 29.9489 98.3629 28.3679 97.7919 27.1406C97.2294 25.9134 96.3899 25.0099 95.2734 24.4304C94.157 23.8509 92.7805 23.5611 91.1442 23.5611H87.6158V40.2571ZM116.604 45V18.8182H133.939V23.3821H122.139V29.6207H132.788V34.1847H122.139V45H116.604ZM137.662 45V18.8182H147.992C149.969 18.8182 151.657 19.1719 153.054 19.8793C154.461 20.5781 155.53 21.571 156.263 22.858C157.005 24.1364 157.375 25.6406 157.375 27.3707C157.375 29.1094 157 30.6051 156.25 31.858C155.5 33.1023 154.414 34.0568 152.99 34.7216C151.576 35.3864 149.863 35.7188 147.851 35.7188H140.935V31.2699H146.956C148.013 31.2699 148.891 31.125 149.59 30.8352C150.289 30.5455 150.809 30.1108 151.15 29.5312C151.499 28.9517 151.674 28.2315 151.674 27.3707C151.674 26.5014 151.499 25.7685 151.15 25.1719C150.809 24.5753 150.284 24.1236 149.577 23.8168C148.878 23.5014 147.996 23.3438 146.931 23.3438H143.198V45H137.662ZM151.801 33.0852L158.309 45H152.198L145.831 33.0852H151.801ZM185.347 31.9091C185.347 34.7642 184.806 37.1932 183.723 39.196C182.65 41.1989 181.184 42.7287 179.326 43.7855C177.476 44.8338 175.397 45.358 173.087 45.358C170.76 45.358 168.672 44.8295 166.823 43.7727C164.973 42.7159 163.512 41.1861 162.438 39.1832C161.364 37.1804 160.827 34.7557 160.827 31.9091C160.827 29.054 161.364 26.625 162.438 24.6222C163.512 22.6193 164.973 21.0937 166.823 20.0455C168.672 18.9886 170.76 18.4602 173.087 18.4602C175.397 18.4602 177.476 18.9886 179.326 20.0455C181.184 21.0937 182.65 22.6193 183.723 24.6222C184.806 26.625 185.347 29.054 185.347 31.9091ZM179.735 31.9091C179.735 30.0597 179.458 28.5 178.904 27.2301C178.358 25.9602 177.587 24.9972 176.59 24.3409C175.593 23.6847 174.425 23.3565 173.087 23.3565C171.749 23.3565 170.581 23.6847 169.584 24.3409C168.587 24.9972 167.811 25.9602 167.257 27.2301C166.712 28.5 166.439 30.0597 166.439 31.9091C166.439 33.7585 166.712 35.3182 167.257 36.5881C167.811 37.858 168.587 38.821 169.584 39.4773C170.581 40.1335 171.749 40.4616 173.087 40.4616C174.425 40.4616 175.593 40.1335 176.59 39.4773C177.587 38.821 178.358 37.858 178.904 36.5881C179.458 35.3182 179.735 33.7585 179.735 31.9091ZM211.347 18.8182V45H206.565L195.175 28.5213H194.983V45H189.447V18.8182H194.305L205.607 35.2841H205.837V18.8182H211.347ZM214.923 23.3821V18.8182H236.426V23.3821H228.41V45H222.939V23.3821H214.923ZM251.009 29.7486V34.0696H239.069V29.7486H251.009ZM255.752 45V18.8182H273.394V23.3821H261.288V29.6207H272.487V34.1847H261.288V40.4361H273.445V45H255.752ZM299.694 18.8182V45H294.913L283.522 28.5213H283.331V45H277.795V18.8182H282.653L293.954 35.2841H294.184V18.8182H299.694ZM313.549 45H304.268V18.8182H313.626C316.259 18.8182 318.526 19.3423 320.427 20.3906C322.327 21.4304 323.789 22.9261 324.812 24.8778C325.843 26.8295 326.359 29.1648 326.359 31.8835C326.359 34.6108 325.843 36.9545 324.812 38.9148C323.789 40.875 322.319 42.3793 320.401 43.4276C318.492 44.4759 316.208 45 313.549 45ZM309.803 40.2571H313.319C314.955 40.2571 316.332 39.9673 317.448 39.3878C318.573 38.7997 319.417 37.892 319.979 36.6648C320.55 35.429 320.836 33.8352 320.836 31.8835C320.836 29.9489 320.55 28.3679 319.979 27.1406C319.417 25.9134 318.577 25.0099 317.461 24.4304C316.344 23.8509 314.968 23.5611 313.332 23.5611H309.803V40.2571ZM348.072 45H338.791V18.8182H348.149C350.783 18.8182 353.05 19.3423 354.95 20.3906C356.851 21.4304 358.313 22.9261 359.335 24.8778C360.366 26.8295 360.882 29.1648 360.882 31.8835C360.882 34.6108 360.366 36.9545 359.335 38.9148C358.313 40.875 356.842 42.3793 354.925 43.4276C353.016 44.4759 350.732 45 348.072 45ZM344.327 40.2571H347.842C349.479 40.2571 350.855 39.9673 351.972 39.3878C353.097 38.7997 353.94 37.892 354.503 36.6648C355.074 35.429 355.359 33.8352 355.359 31.8835C355.359 29.9489 355.074 28.3679 354.503 27.1406C353.94 25.9134 353.101 25.0099 351.984 24.4304C350.868 23.8509 349.491 23.5611 347.855 23.5611H344.327V40.2571ZM364.983 45V18.8182H382.625V23.3821H370.518V29.6207H381.717V34.1847H370.518V40.4361H382.676V45H364.983ZM391.756 18.8182L398.084 38.7102H398.327L404.668 18.8182H410.804L401.778 45H394.645L385.607 18.8182H391.756Z" fill="white"/>
<path d="M463 41C453.075 41 445 32.9255 445 23C445 13.0745 453.075 5 463 5C472.926 5 481 13.0745 481 23C481 32.9255 472.925 41 463 41Z" fill="#B3F4FF"/>
<path d="M442.652 44.9984C442.194 44.9984 441.736 44.8236 441.387 44.4743C440.688 43.7754 440.688 42.6423 441.387 41.9443L446.876 36.4551C447.575 35.7563 448.708 35.7563 449.406 36.4551C450.105 37.154 450.105 38.2871 449.406 38.9851L443.917 44.4741C443.567 44.8236 443.109 44.9984 442.652 44.9984Z" fill="#8B8996"/>
<path d="M463 0C450.317 0 440 10.3179 440 23C440 35.6821 450.317 46 463 46C475.683 46 486 35.6821 486 23C486 10.3179 475.683 0 463 0ZM463 41C453.075 41 445 32.9255 445 23C445 13.0745 453.075 5 463 5C472.926 5 481 13.0745 481 23C481 32.9255 472.925 41 463 41Z" fill="#B9BBC1"/>
<path d="M444.569 41.4301C443.647 40.5078 442.422 40 441.117 40C439.812 40 438.587 40.5078 437.664 41.4301L423.431 55.664C422.508 56.5859 422 57.8125 422 59.1166C422 60.4214 422.508 61.6474 423.431 62.5698C424.352 63.4921 425.579 64 426.883 64C428.187 64 429.414 63.4923 430.336 62.5699L444.569 48.336C445.492 47.414 446 46.1875 446 44.8833C446 43.5786 445.492 42.3525 444.569 41.4301Z" fill="#9F6459"/>
<path d="M444.569 41.4301C443.647 40.5078 442.422 40 441.117 40C439.812 40 438.587 40.5078 437.664 41.4301L423.431 55.664C422.508 56.5859 422 57.8125 422 59.1166C422 60.4214 422.508 61.6474 423.431 62.5698L444.57 41.4306C444.57 41.4308 444.569 41.4304 444.569 41.4301Z" fill="#7E5C62"/>
<path d="M466.5 27.5C462.089 27.5 458.5 23.9113 458.5 19.5C458.5 15.0888 462.089 11.5 466.5 11.5C470.911 11.5 474.5 15.0888 474.5 19.5C474.5 23.9113 470.911 27.5 466.5 27.5Z" fill="white"/>
</svg>
