<svg width="269" height="40" viewBox="0 0 269 40" fill="none" xmlns="http://www.w3.org/2000/svg">
<path d="M0.852273 13.5881V10.5455H15.1875V13.5881H9.84375V28H6.19602V13.5881H0.852273ZM21.2386 10.5455V28H17.5483V10.5455H21.2386ZM24.2749 28V10.5455H31.1612C32.4794 10.5455 33.6044 10.7812 34.5362 11.2528C35.4737 11.7187 36.1868 12.3807 36.6754 13.2386C37.1697 14.0909 37.4169 15.0937 37.4169 16.2472C37.4169 17.4062 37.1669 18.4034 36.6669 19.2386C36.1669 20.0682 35.4425 20.7045 34.4936 21.1477C33.5504 21.5909 32.4084 21.8125 31.0675 21.8125H26.4567V18.8466H30.4709C31.1754 18.8466 31.7607 18.75 32.2266 18.5568C32.6925 18.3636 33.0391 18.0739 33.2663 17.6875C33.4993 17.3011 33.6158 16.821 33.6158 16.2472C33.6158 15.6676 33.4993 15.179 33.2663 14.7812C33.0391 14.3835 32.6896 14.0824 32.218 13.8778C31.7521 13.6676 31.1641 13.5625 30.4538 13.5625H27.9652V28H24.2749ZM33.701 20.0568L38.0391 28H33.9652L29.7209 20.0568H33.701ZM40.0249 28V10.5455H51.7862V13.5881H43.7152V17.7472H51.1811V20.7898H43.7152V24.9574H51.8203V28H40.0249ZM60.9077 28H54.7202V10.5455H60.9588C62.7145 10.5455 64.2259 10.8949 65.4929 11.5938C66.7599 12.2869 67.7344 13.2841 68.4162 14.5852C69.1037 15.8864 69.4474 17.4432 69.4474 19.2557C69.4474 21.0739 69.1037 22.6364 68.4162 23.9432C67.7344 25.25 66.7543 26.2528 65.4759 26.9517C64.2031 27.6506 62.6804 28 60.9077 28ZM58.4105 24.8381H60.7543C61.8452 24.8381 62.7628 24.6449 63.5071 24.2585C64.2571 23.8665 64.8196 23.2614 65.1946 22.4432C65.5753 21.6193 65.7656 20.5568 65.7656 19.2557C65.7656 17.9659 65.5753 16.9119 65.1946 16.0938C64.8196 15.2756 64.2599 14.6733 63.5156 14.2869C62.7713 13.9006 61.8537 13.7074 60.7628 13.7074H58.4105V24.8381ZM77.7358 28V10.5455H89.2926V13.5881H81.4261V17.7472H88.5256V20.7898H81.4261V28H77.7358ZM91.7749 28V10.5455H98.6612C99.9794 10.5455 101.104 10.7812 102.036 11.2528C102.974 11.7187 103.687 12.3807 104.175 13.2386C104.67 14.0909 104.917 15.0937 104.917 16.2472C104.917 17.4062 104.667 18.4034 104.167 19.2386C103.667 20.0682 102.942 20.7045 101.994 21.1477C101.05 21.5909 99.9084 21.8125 98.5675 21.8125H93.9567V18.8466H97.9709C98.6754 18.8466 99.2607 18.75 99.7266 18.5568C100.192 18.3636 100.539 18.0739 100.766 17.6875C100.999 17.3011 101.116 16.821 101.116 16.2472C101.116 15.6676 100.999 15.179 100.766 14.7812C100.539 14.3835 100.19 14.0824 99.718 13.8778C99.2521 13.6676 98.6641 13.5625 97.9538 13.5625H95.4652V28H91.7749ZM101.201 20.0568L105.539 28H101.465L97.2209 20.0568H101.201ZM123.565 19.2727C123.565 21.1761 123.204 22.7955 122.482 24.1307C121.766 25.4659 120.789 26.4858 119.55 27.1903C118.317 27.8892 116.931 28.2386 115.391 28.2386C113.84 28.2386 112.448 27.8864 111.215 27.1818C109.982 26.4773 109.008 25.4574 108.292 24.1222C107.576 22.7869 107.218 21.1705 107.218 19.2727C107.218 17.3693 107.576 15.75 108.292 14.4148C109.008 13.0795 109.982 12.0625 111.215 11.3636C112.448 10.6591 113.84 10.3068 115.391 10.3068C116.931 10.3068 118.317 10.6591 119.55 11.3636C120.789 12.0625 121.766 13.0795 122.482 14.4148C123.204 15.75 123.565 17.3693 123.565 19.2727ZM119.823 19.2727C119.823 18.0398 119.638 17 119.269 16.1534C118.906 15.3068 118.391 14.6648 117.727 14.2273C117.062 13.7898 116.283 13.571 115.391 13.571C114.499 13.571 113.721 13.7898 113.056 14.2273C112.391 14.6648 111.874 15.3068 111.505 16.1534C111.141 17 110.96 18.0398 110.96 19.2727C110.96 20.5057 111.141 21.5455 111.505 22.392C111.874 23.2386 112.391 23.8807 113.056 24.3182C113.721 24.7557 114.499 24.9744 115.391 24.9744C116.283 24.9744 117.062 24.7557 117.727 24.3182C118.391 23.8807 118.906 23.2386 119.269 22.392C119.638 21.5455 119.823 20.5057 119.823 19.2727ZM140.898 10.5455V28H137.71L130.116 17.0142H129.989V28H126.298V10.5455H129.537L137.071 21.5227H137.224V10.5455H140.898ZM143.282 13.5881V10.5455H157.617V13.5881H152.273V28H148.626V13.5881H143.282ZM167.339 17.8324V20.7131H159.379V17.8324H167.339ZM170.501 28V10.5455H182.263V13.5881H174.192V17.7472H181.658V20.7898H174.192V24.9574H182.297V28H170.501ZM199.796 10.5455V28H196.609L189.015 17.0142H188.887V28H185.197V10.5455H188.435L195.969 21.5227H196.123V10.5455H199.796ZM209.033 28H202.845V10.5455H209.084C210.839 10.5455 212.351 10.8949 213.618 11.5938C214.885 12.2869 215.859 13.2841 216.541 14.5852C217.229 15.8864 217.572 17.4432 217.572 19.2557C217.572 21.0739 217.229 22.6364 216.541 23.9432C215.859 25.25 214.879 26.2528 213.601 26.9517C212.328 27.6506 210.805 28 209.033 28ZM206.536 24.8381H208.879C209.97 24.8381 210.888 24.6449 211.632 24.2585C212.382 23.8665 212.945 23.2614 213.32 22.4432C213.7 21.6193 213.891 20.5568 213.891 19.2557C213.891 17.9659 213.7 16.9119 213.32 16.0938C212.945 15.2756 212.385 14.6733 211.641 14.2869C210.896 13.9006 209.979 13.7074 208.888 13.7074H206.536V24.8381Z" fill="white"/>
<path d="M254.625 25.625C248.422 25.625 243.375 20.5784 243.375 14.375C243.375 8.17156 248.422 3.125 254.625 3.125C260.828 3.125 265.875 8.17156 265.875 14.375C265.875 20.5784 260.828 25.625 254.625 25.625Z" fill="#B3F4FF"/>
<path d="M241.907 28.124C241.621 28.124 241.335 28.0148 241.117 27.7964C240.68 27.3596 240.68 26.6514 241.117 26.2152L244.548 22.7845C244.985 22.3477 245.692 22.3477 246.129 22.7845C246.566 23.2213 246.566 23.9295 246.129 24.3657L242.698 27.7963C242.479 28.0148 242.193 28.124 241.907 28.124Z" fill="#8B8996"/>
<path d="M254.625 0C246.698 0 240.25 6.44867 240.25 14.375C240.25 22.3013 246.698 28.75 254.625 28.75C262.552 28.75 269 22.3013 269 14.375C269 6.44867 262.552 0 254.625 0ZM254.625 25.625C248.422 25.625 243.375 20.5784 243.375 14.375C243.375 8.17156 248.422 3.125 254.625 3.125C260.828 3.125 265.875 8.17156 265.875 14.375C265.875 20.5784 260.828 25.625 254.625 25.625Z" fill="#B9BBC1"/>
<path d="M243.106 25.8938C242.53 25.3173 241.764 25 240.948 25C240.133 25 239.367 25.3173 238.79 25.8938L229.894 34.79C229.317 35.3662 229 36.1328 229 36.9479C229 37.7634 229.317 38.5296 229.894 39.1061C230.47 39.6826 231.237 40 232.052 40C232.867 40 233.634 39.6827 234.21 39.1062L243.106 30.21C243.683 29.6338 244 28.8672 244 28.052C244 27.2366 243.683 26.4703 243.106 25.8938Z" fill="#9F6459"/>
<path d="M243.106 25.8938C242.53 25.3173 241.764 25 240.948 25C240.133 25 239.367 25.3173 238.79 25.8938L229.894 34.79C229.317 35.3662 229 36.1328 229 36.9479C229 37.7634 229.317 38.5296 229.894 39.1061L243.106 25.8941C243.106 25.8942 243.106 25.894 243.106 25.8938Z" fill="#7E5C62"/>
<path d="M256.813 17.1875C254.055 17.1875 251.813 14.9445 251.813 12.1875C251.813 9.43047 254.055 7.1875 256.813 7.1875C259.57 7.1875 261.813 9.43047 261.813 12.1875C261.813 14.9445 259.57 17.1875 256.813 17.1875Z" fill="white"/>
</svg>
