<svg width="98" height="20" viewBox="0 0 98 20" fill="none" xmlns="http://www.w3.org/2000/svg">
<path d="M38.2257 2.41506C37.0253 1.60591 35.652 1.08943 34.216 0.907098C32.7799 0.724761 31.3211 0.88164 29.9567 1.36514C28.5922 1.84864 27.3601 2.6453 26.3593 3.69117C25.3584 4.73703 24.6167 6.00297 24.1937 7.38737C23.7707 8.77177 23.6781 10.2361 23.9234 11.6627C24.1687 13.0894 24.7451 14.4386 25.6063 15.6022C26.4674 16.7658 27.5894 17.7113 28.8821 18.3627C30.1748 19.0142 31.6022 19.3536 33.0498 19.3535C35.0332 19.3535 36.9641 18.7166 38.5583 17.5368C40.1526 16.3569 41.3259 14.6963 41.9055 12.7995C42.4851 10.9027 42.4403 8.86997 41.7779 7.00052C41.1154 5.13106 39.8702 3.52369 38.2257 2.41506ZM38.4856 12.3918C38.0382 13.4462 37.2955 14.3488 36.3469 14.9908C35.499 15.5593 34.5181 15.8981 33.5001 15.974C32.4821 16.0499 31.4618 15.8604 30.539 15.424C29.6161 14.9875 28.8223 14.3191 28.2351 13.4841C27.6479 12.649 27.2875 11.6759 27.189 10.6598C27.0905 9.64371 27.2573 8.61946 27.6731 7.68716C28.089 6.75485 28.7396 5.9464 29.5614 5.34082C30.3832 4.73524 31.3481 4.35326 32.3618 4.23222C33.3754 4.11118 34.4031 4.25522 35.3444 4.65026C36.3993 5.09868 37.3019 5.84272 37.9435 6.79263C38.4913 7.60768 38.8276 8.54622 38.9223 9.52367C39.0169 10.5011 38.8668 11.4868 38.4856 12.3918Z" fill="black"/>
<path d="M33.0496 7.23816C32.4848 7.23743 31.9323 7.40426 31.4623 7.71755C30.9923 8.03084 30.6257 8.47652 30.4091 8.99818C30.1924 9.51985 30.1353 10.0941 30.2451 10.6482C30.3548 11.2023 30.6265 11.7114 31.0256 12.1111C31.4248 12.5108 31.9335 12.7831 32.4875 12.8935C33.0415 13.004 33.6158 12.9477 34.1377 12.7317C34.6597 12.5157 35.1058 12.1497 35.4197 11.6801C35.7336 11.2105 35.9012 10.6583 35.9012 10.0934C35.9012 9.3368 35.6009 8.61112 35.0662 8.07576C34.5315 7.5404 33.8062 7.23914 33.0496 7.23816Z" fill="#E6007E"/>
<path d="M6.16419 19.1976L0.966064 1.03753H4.35227L7.60482 13.7507L10.7868 1.03753H13.4156L16.5939 13.7507L19.8501 1.03753H23.2438L18.0456 19.1976H15.2238L12.1049 7.02281L9.00089 19.1976H6.16419Z" fill="black"/>
<path d="M44.2776 19.1976V1.03753H49.5352C51.7258 1.03753 53.4115 1.5524 54.5922 2.58212C55.7729 3.6069 56.3596 5.0141 56.3596 6.79261C56.3879 8.2023 55.9038 9.57439 54.9969 10.6541C54.5629 11.1825 54.0255 11.6168 53.4177 11.9303C52.8099 12.2438 52.1444 12.4299 51.4622 12.4771L56.5712 19.1976H52.4907L47.7493 12.4771H47.6416V19.1976H44.2776ZM47.6193 4.28265V9.685H49.6132C50.4808 9.73047 51.3407 9.50186 52.0711 9.03152C52.6751 8.60081 52.9783 7.91887 52.9808 6.98568C53.0026 6.5969 52.9302 6.20861 52.7699 5.85375C52.6096 5.49889 52.3661 5.18794 52.06 4.94727C51.3369 4.46864 50.479 4.2356 49.6132 4.28265H47.6193Z" fill="black"/>
<path d="M58.8138 19.1976V1.03753H62.1555V8.91642L67.8177 1.03753H71.772L64.955 9.97089L71.7572 19.1976H67.8177L62.174 11.2481V19.1976H58.8138Z" fill="black"/>
<path d="M73.9963 19.1976V16.8659H76.3391V19.1976H73.9963Z" fill="black"/>
<path d="M86.3007 9.5142V19.1976H84.1584V18.3065H84.1361C83.834 18.6829 83.454 18.9894 83.0222 19.205C82.5849 19.417 82.1046 19.525 81.6187 19.5206C80.3019 19.5206 79.3179 19.1147 78.6669 18.3028C78.0159 17.4909 77.6954 16.3101 77.7053 14.7606V9.5142H80.037V14.4524C80.037 15.4549 80.1818 16.1864 80.5085 16.6468C80.6779 16.8767 80.9033 17.0595 81.1633 17.1778C81.4232 17.2961 81.7091 17.3459 81.9937 17.3225C82.2786 17.3485 82.5654 17.2998 82.8258 17.1813C83.0862 17.0628 83.3113 16.8786 83.4789 16.6468C83.8056 16.1864 83.969 15.4549 83.969 14.4524V9.5142H86.3007Z" fill="black"/>
<path d="M97.6328 9.51424V19.1976H95.4904V17.8906H95.457C95.0807 18.4128 94.5788 18.8317 93.9978 19.1085C93.4433 19.3698 92.8396 19.5103 92.2267 19.5206C91.6035 19.5289 90.9853 19.4089 90.4104 19.1681C89.8355 18.9273 89.3163 18.5708 88.8851 18.1209C88.4138 17.6357 88.0466 17.0594 87.8059 16.4274C87.5652 15.7953 87.4561 15.1208 87.4853 14.445C87.44 13.0604 87.9384 11.713 88.8739 10.6912C89.3032 10.2128 89.8305 9.83256 90.42 9.57628C91.0094 9.31999 91.6472 9.19372 92.2898 9.20606C92.9237 9.19736 93.5499 9.34531 94.1129 9.63677C94.6615 9.92806 95.1227 10.3599 95.4496 10.888H95.483V9.51424H97.6328ZM92.676 11.3893C92.2923 11.3764 91.9104 11.4475 91.557 11.5975C91.2037 11.7476 90.8873 11.9731 90.6302 12.2581C90.0921 12.8567 89.8073 13.6407 89.8356 14.445C89.8128 14.8257 89.8703 15.2069 90.0045 15.5639C90.1386 15.9208 90.3464 16.2456 90.6143 16.517C90.8822 16.7884 91.2042 17.0004 91.5594 17.1392C91.9146 17.278 92.2951 17.3404 92.676 17.3226C93.0492 17.337 93.4212 17.2709 93.7665 17.1287C94.1119 16.9864 94.4225 16.7714 94.6773 16.4983C95.2057 15.9059 95.4815 15.1304 95.4459 14.3374C95.4708 13.5627 95.1955 12.8084 94.6773 12.2321C94.4251 11.9544 94.1154 11.7352 93.7698 11.5896C93.4241 11.444 93.0508 11.3757 92.676 11.3893Z" fill="black"/>
</svg>
